<?xml version="1.0" encoding="utf-8"?>
<!-- Generator: Adobe Illustrator 15.0.2, SVG Export Plug-In . SVG Version: 6.00 Build 0)  -->
<!DOCTYPE svg PUBLIC "-//W3C//DTD SVG 1.1//EN" "http://www.w3.org/Graphics/SVG/1.1/DTD/svg11.dtd">
<svg version="1.1" xmlns="http://www.w3.org/2000/svg" xmlns:xlink="http://www.w3.org/1999/xlink" x="0px" y="0px" width="240px"
	 height="68px" viewBox="0 0 240 68" enable-background="new 0 0 240 68" xml:space="preserve">
<g id="Layer_1">
	<g>
		<path fill="#10AA93" d="M76.663,48.632H69.18L80.23,32.31L70.188,21.027h7.29l9.577,11.282V21.027h5.814V32.31l9.577-11.282h7.289
			L99.693,32.31l11.051,16.322h-7.521l-7.367-12.019l-2.986,3.373v8.646h-5.814v-8.646l-2.986-3.373L76.663,48.632z"/>
		<path fill="#10AA93" d="M132.223,25.989h-14.695v6.01h13.493v4.77h-13.493v6.785h14.967v5.078h-20.977V21.027h20.705V25.989z"/>
		<path fill="#10AA93" d="M135.092,21.027h8.646l6.436,18.959l6.281-18.959h8.451v27.604h-5.699V29.014l-6.785,19.618h-4.691
			l-6.861-19.424v19.424h-5.777V21.027z"/>
		<path fill="#10AA93" d="M177.406,38.009c-1.548,0-2.934-0.168-4.158-0.504c-1.226-0.336-2.256-0.885-3.095-1.647
			c-0.838-0.763-1.482-1.758-1.934-2.985s-0.677-2.733-0.677-4.518v-7.327h6.088v7.405c0,1.68,0.326,2.855,0.98,3.527
			c0.653,0.673,1.75,1.009,3.289,1.009c0.409,0,0.884-0.025,1.422-0.078c0.539-0.051,1.064-0.109,1.578-0.174
			c0.512-0.064,0.986-0.13,1.423-0.194s0.769-0.122,1-0.175v-11.32h6.087v27.604h-6.087V37.233
			c-0.336,0.077-0.755,0.162-1.257,0.252c-0.503,0.091-1.032,0.175-1.586,0.252c-0.555,0.078-1.102,0.143-1.645,0.194
			C178.295,37.983,177.817,38.009,177.406,38.009z"/>
		<path fill="#10AA93" d="M194.295,43.398c0.362,0.155,0.795,0.297,1.299,0.427c0.505,0.129,1.041,0.193,1.609,0.193
			c0.931,0,1.629-0.239,2.094-0.718c0.465-0.478,0.697-1.026,0.697-1.647c0-0.594-0.142-1.195-0.426-1.803
			c-0.285-0.607-0.568-1.195-0.854-1.764l-8.104-17.06h6.708l6.242,14.539l6.126-14.539h6.475l-9.305,20.315
			c-0.646,1.396-1.279,2.592-1.9,3.587c-0.619,0.995-1.285,1.803-1.996,2.423c-0.711,0.621-1.492,1.073-2.346,1.357
			s-1.836,0.426-2.947,0.426c-0.75,0-1.428-0.07-2.035-0.213s-1.053-0.278-1.338-0.406V43.398z"/>
		<path fill="#10AA93" d="M236.596,26.184h-13.183v22.448h-6.088V21.027h19.271V26.184z"/>
	</g>
</g>
<g id="Layer_2">
</g>
<g id="Layer_3">
	<g>
		<linearGradient id="SVGID_1_" gradientUnits="userSpaceOnUse" x1="23.9961" y1="5.4868" x2="32.1095" y2="48.6186">
			<stop  offset="0" style="stop-color:#C7DDF3"/>
			<stop  offset="1" style="stop-color:#1C75BC"/>
		</linearGradient>
		<path fill="url(#SVGID_1_)" d="M23.84,64.025c-1.288,0-2.69-1.251-4.412-3.935c-4.473-6.979-7.533-14.191-10.56-24.896
			l-0.156-0.554C5.767,24.234,1.393,12.194,6.978,8.111c1.265-0.924,2.57-1.374,3.991-1.374c1.939,0,3.767,0.86,5.534,1.691
			c1.741,0.819,3.541,1.667,5.403,1.667c0.503,0,2.02,0.186,2.507,0.064c1.874-0.464,3.458-1.688,5.136-2.984
			c2.24-1.732,4.557-3.523,7.73-3.523c1.072,0,2.147,0.202,3.286,0.617c8.067,2.939,8.625,16.235,6.651,26.728
			c-2.095,11.143-5.955,23.187-6.752,25.258c-0.455,1.183-1.735,3.42-3.331,3.42c0,0,0,0,0,0c-1.229,0.001-1.906-1.111-2.012-3.304
			c-0.239-4.941-1.533-10.167-3.01-12.153c-1.164-1.565-2.872-2.658-4.153-2.658c-0.572,0-1.044,0.214-1.441,0.655
			c-0.849,0.938-2.064,3.726-0.679,11.849c0.375,2.198,1.071,7.505-0.554,9.305C24.896,63.798,24.397,64.024,23.84,64.025
			L23.84,64.025z M11.627,8.841c-0.992,0-2.229,0.709-3.155,1.386c-4.608,3.369-0.619,14.571,2.037,23.961l0.157,0.554
			c2.978,10.532,5.977,17.613,10.354,24.439c1.957,3.052,2.811,3.087,2.818,3.087l0.001,0.878l-0.001-0.878h0.001
			c0.351-0.196,1.091-2.452,0.159-7.925c-1.146-6.727-0.777-11.189,1.1-13.269c0.752-0.831,1.74-1.271,2.859-1.271
			c1.91,0,4.139,1.337,5.678,3.404c1.906,2.563,3.125,8.522,3.346,13.084c0.043,0.902,0.176,1.346,0.265,1.546
			c0.373-0.266,1.051-1.099,1.468-2.182c0.787-2.043,4.595-13.935,6.669-24.967c1.997-10.612,1.074-22.391-5.489-24.782
			c-0.921-0.336-1.776-0.499-2.615-0.499c-2.509,0-4.472,1.518-6.55,3.125c-1.758,1.359-3.575,2.764-5.843,3.325
			c-0.634,0.158-2.324-0.007-2.98-0.007c-2.3,0-4.3-0.941-6.234-1.851C14.025,9.226,13.129,8.841,11.627,8.841z"/>
		<path fill="#AFE1EF" d="M23.147,60.826c-0.336-0.426-0.744-1.01-1.225-1.822C17.984,52.361,15.4,45.522,13.005,35.4l-0.127-0.534
			c-2.124-8.966-4.766-20.124-0.238-23.07c0.853-0.555,1.69-0.825,2.561-0.825c1.48,0,3.001,0.772,4.612,1.589
			c1.868,0.947,3.986,2.021,6.418,2.021h0.001c0.549,0,1.103-0.055,1.645-0.165c2.29-0.461,4.158-1.748,5.964-2.992
			c2.022-1.393,3.933-2.708,6.221-2.708c0.869,0,1.752,0.184,2.697,0.56c1.263,0.505,2.276,1.377,3.074,2.524l2.405-0.428
			c-1.072-1.872-2.575-3.32-4.603-4.129c-1.229-0.49-2.397-0.729-3.573-0.729c-3.023,0-5.324,1.586-7.552,3.12
			c-1.688,1.163-3.283,2.26-5.101,2.627c-0.395,0.08-0.779,0.118-1.177,0.118c0,0,0,0-0.001,0c-1.867,0-3.56-0.858-5.353-1.768
			c-1.786-0.905-3.632-1.842-5.678-1.842c-1.341,0-2.598,0.393-3.841,1.202c-5.825,3.789-3.108,15.262-0.711,25.383l0.126,0.535
			c2.449,10.349,5.103,17.361,9.161,24.206c1.533,2.584,2.81,3.841,4.092,4.013L23.147,60.826z"/>
		<linearGradient id="SVGID_2_" gradientUnits="userSpaceOnUse" x1="30.4351" y1="60.8096" x2="31.9264" y2="21.2528">
			<stop  offset="0" style="stop-color:#8BD7F8"/>
			<stop  offset="1" style="stop-color:#1C75BC"/>
		</linearGradient>
		<path fill="url(#SVGID_2_)" d="M47.122,10.521c-1.342-0.628-2.635-0.933-3.953-0.933c-2.689,0-4.902,1.285-7.041,2.529
			c-1.76,1.022-3.421,1.988-5.272,2.23c-0.268,0.035-0.54,0.053-0.806,0.053c-2.046,0-3.782-1.01-5.62-2.079
			c-1.802-1.048-3.666-2.622-5.822-2.622c-1.145,0-2.689,0.682-3.811,1.294c-5.954,3.256-3.638,14.585-1.985,24.485L12.898,36
			c1.69,10.139,3.816,17.07,7.334,23.927c1.443,2.811,2.74,4.119,4.08,4.119c0.385-0.001,0.955-0.114,1.483-0.656
			c1.657-1.698,1.593-6.493,1.488-8.476c-0.377-7.145,0.948-9.627,1.771-10.472c0.41-0.42,0.865-0.624,1.39-0.624
			c1.243,0,2.86,1.177,3.845,2.797c1.177,1.936,1.811,6.799,1.474,11.315c-0.105,1.426,0.092,2.35,0.622,2.905
			c0.317,0.332,0.749,0.514,1.214,0.514c0.001,0,0.001,0,0.001,0c1.511,0,2.952-1.887,3.503-2.886
			c1.008-1.827,6.123-12.521,9.428-22.546C53.665,26.406,54.654,14.048,47.122,10.521z M48.618,35.319
			c-3.263,9.899-8.293,20.423-9.284,22.218c-0.481,0.871-1.158,1.525-1.534,1.762c-0.043-0.206-0.081-0.583-0.033-1.228
			c0.316-4.24-0.185-9.879-1.75-12.453c-1.137-1.87-3.301-3.757-5.574-3.757c-1.075,0-2.06,0.427-2.846,1.233
			c-1.857,1.903-2.639,5.914-2.322,11.918c0.253,4.805-0.608,6.825-0.98,7.07c-0.132-0.044-0.917-0.404-2.267-3.032
			c-3.422-6.666-5.493-13.435-7.148-23.365l-0.087-0.521c-1.471-8.809-3.013-18.805,1.716-21.391
			c0.813-0.444,1.585-0.733,2.376-0.733c1.602,0,2.854,0.351,4.494,1.305c1.899,1.104,3.882,2.283,6.482,2.283
			c0.357,0,1.377-0.133,1.729-0.204c2.419-0.489,3.708-1.549,5.564-2.627c1.993-1.158,3.876-2.252,6.011-2.252
			c1.011,0,2.019,0.242,3.083,0.74C52.211,15.075,51.734,25.865,48.618,35.319z"/>
	</g>
</g>
</svg>
